# xmcd
#
# Track frame offsets:
# 150
# 16572
# 32705
# 46496
# 63634
# 79827
# 96718
# 112876
# 129014
# 143049
# 161911
# 176521
# 190178
# 205913
#
# Disc length: 2947 seconds
#
#
# Revision: 0
# Processed by: cddbd v1.5.2PL0 Copyright (c) Steve Scherf et al.
# Submitted via: FreeRIP 2.951 
#
DISCID=ba0b810e
DTITLE=Nöjeståget - Back to the future
DYEAR=1900
DGENRE=Dansband
TTITLE0=Cattings/Dreams/Mickeys/Svänzons - Våga och vinn i Nöjeståget
TTITLE1=Mickeys - Älskar nog dig ändå
TTITLE2=Mickeys - Nu är det du och jag
TTITLE3=Mickeys - Så lycklig
TTITLE4=Cattings - Kom och dansa
TTITLE5=Cattings - Cecilia
TTITLE6=Cattings - Här med dej nära fjällen
TTITLE7=Cattings - Välkommen hem
TTITLE8=Dreams - Vart tog hon vägen
TTITLE9=Dreams - The Actor
TTITLE10=Dreams - Ingenting är som kärleken
TTITLE11=Svänzons - Anna kom hem
TTITLE12=Svänzons - Om det finns Änglar
TTITLE13=Svänzons - Just den man
EXTD=
EXTT0=
EXTT1=
EXTT2=
EXTT3=
EXTT4=
EXTT5=
EXTT6=
EXTT7=
EXTT8=
EXTT9=
EXTT10=
EXTT11=
EXTT12=
EXTT13=
PLAYORDER=
